# xmcd CD database file
#
# Track frame offsets:
#	150
#	27976
#	55577
#	77705
#	110557
#	138009
#	159798
#	187925
#
# Disc length: 2865 seconds
#
# Revision: 0
# Processed by: cddbd v1.5.2PL0 Copyright (c) Steve Scherf et al.
# Submitted via: CDex 1.50
#
DISCID=540b2f08
DTITLE=Lorenz Hargassner Quartet - Vitality
DYEAR=2009
DGENRE=Jazz
TTITLE0=September 1st
TTITLE1=Collage
TTITLE2=Mira
TTITLE3=Repeated Behaviour
TTITLE4=Peter´s Blues
TTITLE5=Sisyphos
TTITLE6=On y va
TTITLE7=Tanti Anni Prima
EXTD=YEAR: 2009
EXTT0=
EXTT1=
EXTT2=
EXTT3=
EXTT4=
EXTT5=
EXTT6=
EXTT7=
PLAYORDER=
